<svg width="42" height="42" viewBox="0 0 42 42" fill="none" xmlns="http://www.w3.org/2000/svg">
<rect x="0.588013" y="0.5" width="41" height="41" rx="20" fill="#F6F6F6"/>
<g clip-path="url(#clip0_101_210)">
<path d="M24.2547 29.125V27.5417C24.2547 26.7018 23.921 25.8964 23.3272 25.3025C22.7333 24.7086 21.9279 24.375 21.088 24.375H15.5463C14.7065 24.375 13.901 24.7086 13.3072 25.3025C12.7133 25.8964 12.3797 26.7018 12.3797 27.5417V29.125" stroke="black" stroke-width="1.58333" stroke-linecap="round" stroke-linejoin="round"/>
<path d="M18.3172 21.2083C20.0661 21.2083 21.4838 19.7906 21.4838 18.0417C21.4838 16.2928 20.0661 14.875 18.3172 14.875C16.5683 14.875 15.1505 16.2928 15.1505 18.0417C15.1505 19.7906 16.5683 21.2083 18.3172 21.2083Z" stroke="#3A3A3A" stroke-width="1.58333" stroke-linecap="round" stroke-linejoin="round"/>
<path d="M25.0464 21.2083L26.6297 22.7917L29.7964 19.625" stroke="#3A3A3A" stroke-width="1.58333" stroke-linecap="round" stroke-linejoin="round"/>
</g>
<defs>
<clipPath id="clip0_101_210">
<rect width="19" height="19" fill="white" transform="translate(11.588 12.5)"/>
</clipPath>
</defs>
</svg>
