<svg width="40" height="40" viewBox="0 0 40 40" fill="none" xmlns="http://www.w3.org/2000/svg">
<path d="M24.5 17C24.5 15.8065 24.0259 14.6619 23.182 13.818C22.3381 12.9741 21.1935 12.5 20 12.5C18.8065 12.5 17.6619 12.9741 16.818 13.818C15.9741 14.6619 15.5 15.8065 15.5 17C15.5 22.25 13.25 23.75 13.25 23.75H26.75C26.75 23.75 24.5 22.25 24.5 17Z" stroke="black" stroke-width="1.5" stroke-linecap="round" stroke-linejoin="round"/>
<path d="M21.2971 26.75C21.1653 26.9773 20.976 27.166 20.7483 27.2971C20.5206 27.4283 20.2624 27.4973 19.9996 27.4973C19.7369 27.4973 19.4787 27.4283 19.251 27.2971C19.0233 27.166 18.834 26.9773 18.7021 26.75" stroke="black" stroke-width="1.5" stroke-linecap="round" stroke-linejoin="round"/>
</svg>
