<svg width="40" height="40" viewBox="0 0 40 40" fill="none" xmlns="http://www.w3.org/2000/svg">
<g clip-path="url(#clip0_101_411)">
<path d="M20.3836 23.4301C22.0672 23.4301 23.432 22.0652 23.432 20.3816C23.432 18.698 22.0672 17.3331 20.3836 17.3331C18.7 17.3331 17.3351 18.698 17.3351 20.3816C17.3351 22.0652 18.7 23.4301 20.3836 23.4301Z" stroke="black" stroke-width="1.74198" stroke-linecap="round" stroke-linejoin="round"/>
<path d="M27.1749 22.9092C27.0458 23.2017 27.0073 23.5261 27.0643 23.8407C27.1214 24.1552 27.2713 24.4455 27.4949 24.674L27.5531 24.7322C27.7334 24.9123 27.8764 25.1262 27.974 25.3617C28.0716 25.5971 28.1218 25.8495 28.1218 26.1043C28.1218 26.3592 28.0716 26.6116 27.974 26.847C27.8764 27.0825 27.7334 27.2963 27.5531 27.4765C27.3729 27.6568 27.159 27.7998 26.9236 27.8974C26.6882 27.995 26.4358 28.0453 26.1809 28.0453C25.9261 28.0453 25.6737 27.995 25.4383 27.8974C25.2028 27.7998 24.9889 27.6568 24.8088 27.4765L24.7506 27.4183C24.5221 27.1947 24.2318 27.0448 23.9173 26.9877C23.6027 26.9307 23.2783 26.9692 22.9858 27.0983C22.699 27.2212 22.4544 27.4253 22.2821 27.6855C22.1098 27.9456 22.0173 28.2505 22.0161 28.5625V28.7274C22.0161 29.2417 21.8118 29.735 21.448 30.0987C21.0843 30.4624 20.591 30.6668 20.0767 30.6668C19.5623 30.6668 19.069 30.4624 18.7053 30.0987C18.3416 29.735 18.1373 29.2417 18.1373 28.7274V28.6401C18.1298 28.3191 18.0259 28.0079 17.8391 27.7467C17.6523 27.4856 17.3913 27.2867 17.09 27.1759C16.7975 27.0468 16.4731 27.0083 16.1585 27.0653C15.844 27.1223 15.5537 27.2723 15.3252 27.4959L15.267 27.554C15.0869 27.7344 14.873 27.8774 14.6375 27.975C14.4021 28.0726 14.1497 28.1228 13.8949 28.1228C13.64 28.1228 13.3876 28.0726 13.1522 27.975C12.9168 27.8774 12.7029 27.7344 12.5227 27.554C12.3424 27.3739 12.1994 27.16 12.1018 26.9246C12.0042 26.6892 11.9539 26.4368 11.9539 26.1819C11.9539 25.9271 12.0042 25.6747 12.1018 25.4392C12.1994 25.2038 12.3424 24.9899 12.5227 24.8098L12.5809 24.7516C12.8045 24.5231 12.9544 24.2328 13.0115 23.9182C13.0685 23.6037 13.03 23.2792 12.9009 22.9868C12.778 22.7 12.5739 22.4554 12.3137 22.2831C12.0536 22.1108 11.7487 22.0183 11.4367 22.0171H11.2718C10.7575 22.0171 10.2642 21.8127 9.90048 21.449C9.53677 21.0853 9.33244 20.592 9.33244 20.0777C9.33244 19.5633 9.53677 19.07 9.90048 18.7063C10.2642 18.3426 10.7575 18.1383 11.2718 18.1383H11.3591C11.6801 18.1308 11.9914 18.0269 12.2525 17.8401C12.5136 17.6533 12.7125 17.3923 12.8234 17.091C12.9524 16.7985 12.9909 16.4741 12.9339 16.1595C12.8769 15.845 12.7269 15.5547 12.5034 15.3262L12.4452 15.268C12.2649 15.0879 12.1218 14.874 12.0242 14.6385C11.9266 14.4031 11.8764 14.1507 11.8764 13.8959C11.8764 13.641 11.9266 13.3886 12.0242 13.1532C12.1218 12.9177 12.2649 12.7039 12.4452 12.5237C12.6253 12.3434 12.8392 12.2004 13.0746 12.1028C13.3101 12.0052 13.5624 11.9549 13.8173 11.9549C14.0722 11.9549 14.3245 12.0052 14.56 12.1028C14.7954 12.2004 15.0093 12.3434 15.1894 12.5237L15.2476 12.5819C15.4761 12.8055 15.7664 12.9554 16.081 13.0125C16.3955 13.0695 16.72 13.031 17.0124 12.9019H17.09C17.3768 12.779 17.6214 12.5749 17.7937 12.3147C17.966 12.0546 18.0585 11.7497 18.0597 11.4377V11.2728C18.0597 10.7585 18.264 10.2652 18.6278 9.90147C18.9915 9.53776 19.4848 9.33344 19.9991 9.33344C20.5135 9.33344 21.0068 9.53776 21.3705 9.90147C21.7342 10.2652 21.9385 10.7585 21.9385 11.2728V11.3601C21.9397 11.6721 22.0322 11.977 22.2045 12.2372C22.3768 12.4973 22.6214 12.7014 22.9082 12.8243C23.2007 12.9534 23.5251 12.9919 23.8397 12.9349C24.1542 12.8779 24.4445 12.7279 24.673 12.5043L24.7312 12.4462C24.9113 12.2658 25.1252 12.1228 25.3607 12.0252C25.5961 11.9276 25.8485 11.8774 26.1034 11.8774C26.3582 11.8774 26.6106 11.9276 26.846 12.0252C27.0815 12.1228 27.2954 12.2658 27.4755 12.4462C27.6558 12.6263 27.7988 12.8402 27.8964 13.0756C27.994 13.3111 28.0443 13.5634 28.0443 13.8183C28.0443 14.0732 27.994 14.3255 27.8964 14.561C27.7988 14.7964 27.6558 15.0103 27.4755 15.1904L27.4173 15.2486C27.1937 15.4771 27.0438 15.7674 26.9867 16.082C26.9297 16.3965 26.9682 16.721 27.0973 17.0134V17.091C27.2202 17.3778 27.4243 17.6224 27.6845 17.7947C27.9446 17.967 28.2495 18.0595 28.5615 18.0607H28.7264C29.2407 18.0607 29.734 18.265 30.0977 18.6287C30.4614 18.9925 30.6658 19.4857 30.6658 20.0001C30.6658 20.5145 30.4614 21.0078 30.0977 21.3715C29.734 21.7352 29.2407 21.9395 28.7264 21.9395H28.6391C28.3271 21.9407 28.0222 22.0332 27.7621 22.2055C27.5019 22.3778 27.2978 22.6224 27.1749 22.9092Z" stroke="black" stroke-width="1.74198" stroke-linecap="round" stroke-linejoin="round"/>
</g>
<defs>
<clipPath id="clip0_101_411">
<rect width="24" height="24" fill="white" transform="translate(8 8)"/>
</clipPath>
</defs>
</svg>
