<svg width="42" height="42" viewBox="0 0 42 42" fill="none" xmlns="http://www.w3.org/2000/svg">
<rect x="0.479996" y="0.5" width="41" height="41" rx="20" fill="#F6F6F6"/>
<g clip-path="url(#clip0_101_220)">
<path d="M23.8127 27.375V25.9583C23.8127 25.2069 23.5142 24.4862 22.9829 23.9549C22.4515 23.4235 21.7309 23.125 20.9794 23.125H16.0211C15.2696 23.125 14.549 23.4235 14.0176 23.9549C13.4863 24.4862 13.1877 25.2069 13.1877 25.9583V27.375" stroke="black" stroke-width="1.41667" stroke-linecap="round" stroke-linejoin="round"/>
<path d="M18.5008 20.2917C20.0656 20.2917 21.3342 19.0231 21.3342 17.4583C21.3342 15.8935 20.0656 14.625 18.5008 14.625C16.936 14.625 15.6675 15.8935 15.6675 17.4583C15.6675 19.0231 16.936 20.2917 18.5008 20.2917Z" stroke="#3A3A3A" stroke-width="1.41667" stroke-linecap="round" stroke-linejoin="round"/>
<path d="M25.23 18.1672L28.7717 21.7089" stroke="#3A3A3A" stroke-width="1.41667" stroke-linecap="round" stroke-linejoin="round"/>
<path d="M28.7717 18.1672L25.23 21.7089" stroke="#3A3A3A" stroke-width="1.41667" stroke-linecap="round" stroke-linejoin="round"/>
</g>
<defs>
<clipPath id="clip0_101_220">
<rect width="17" height="17" fill="white" transform="translate(12.48 12.5)"/>
</clipPath>
</defs>
</svg>
